<?xml version="1.0" encoding="utf-8"?>
<!-- Generator: Adobe Illustrator 16.0.1, SVG Export Plug-In . SVG Version: 6.00 Build 0)  -->
<!DOCTYPE svg PUBLIC "-//W3C//DTD SVG 1.1//EN" "http://www.w3.org/Graphics/SVG/1.1/DTD/svg11.dtd">
<svg version="1.1" xmlns="http://www.w3.org/2000/svg" xmlns:xlink="http://www.w3.org/1999/xlink" x="0px" y="0px" width="864px"
	 height="864px" viewBox="0 0 864 864" enable-background="new 0 0 864 864" xml:space="preserve">
<g id="Layer_1" display="none">
	<text transform="matrix(1 0 0 1 270.394 629.5977)" display="inline" font-family="'MyriadPro-Bold'" font-size="831.3894">?</text>
</g>
<g id="Layer_3">
	<path d="M752.51,188.491H337.491c-6.97,0-13.473,1.986-18.985,5.416c-2.751,1.266-5.33,3.03-7.597,5.296L96.693,413.418
		c-10.262,10.263-10.262,26.901,0,37.164l214.215,214.216c2.266,2.267,4.844,4.03,7.596,5.296c5.512,3.43,12.016,5.416,18.986,5.416
		H752.51c19.882,0,36-16.118,36-36V224.491C788.51,204.608,772.392,188.491,752.51,188.491z M584.673,445.225l117.841,117.841
		c7.273,7.274,7.273,19.176,0,26.449s-19.174,7.273-26.448,0L558.225,471.672c-7.274-7.272-19.175-7.272-26.448,0L413.935,589.515
		c-7.273,7.273-19.175,7.273-26.448,0c-7.274-7.273-7.274-19.175,0-26.449l117.84-117.841c7.274-7.274,7.274-19.176,0-26.448
		l-117.84-117.842c-7.274-7.273-7.274-19.175,0-26.449c7.272-7.273,19.174-7.273,26.448,0l117.842,117.842
		c7.273,7.273,19.174,7.273,26.448,0l117.841-117.842c7.274-7.273,19.175-7.273,26.448,0c7.273,7.273,7.273,19.175,0,26.449
		L584.673,418.776C577.398,426.049,577.398,437.95,584.673,445.225z"/>
</g>
<g id="Layer_2" display="none">
	<g display="inline">
		<path d="M307.296,584.883l124.913,124.912l124.913-124.912c-27.505-38.963-73.343-65.32-124.913-65.32
			C380.64,519.562,334.801,545.92,307.296,584.883z"/>
		<path d="M627.026,514.979l3.439-3.438c19.48-19.482,18.334-52.717-2.293-71.05c-52.717-44.694-121.477-72.198-195.964-72.198
			s-142.102,27.504-195.963,72.198c-21.773,18.335-22.919,51.568-2.291,71.05l3.437,3.438c18.336,18.336,46.985,18.336,66.467,2.293
			c35.525-28.65,80.219-46.987,128.35-46.987c48.132,0,93.972,17.19,128.35,46.987C581.188,533.312,609.836,532.168,627.026,514.979
			z"/>
		<path d="M734.749,407.254l2.294-2.292c19.48-19.481,19.48-51.569-1.146-69.904c-80.219-73.343-186.796-118.036-303.686-118.036
			s-223.467,44.693-303.686,118.036c-20.627,18.337-20.627,50.423-1.146,69.904l2.294,2.292
			c18.335,18.338,48.13,18.338,67.611,1.146c63.031-56.154,145.539-90.533,234.927-90.533s173.043,34.379,234.927,90.533
			C686.617,425.592,716.414,425.592,734.749,407.254z"/>
		<path d="M19.656,297.242l3.436,3.438c18.337,18.336,48.131,19.481,66.468,1.146c90.531-83.658,210.861-135.226,342.649-135.226
			c131.787,0,252.115,51.568,342.649,135.226c19.481,17.19,48.131,17.19,66.467-1.146l3.438-3.438
			c19.481-19.481,18.337-51.569-1.146-69.905C735.896,126.489,590.354,65.753,432.209,65.753
			c-158.146,0-303.685,60.736-411.406,161.583C0.175,245.672,0.175,277.76,19.656,297.242z"/>
	</g>
</g>
</svg>
